<svg width="161" height="36" viewBox="0 0 161 36" fill="none" xmlns="http://www.w3.org/2000/svg">
<path d="M21.5331 26.4328V31.2324C21.5331 32.0385 21.3865 32.7346 21.0568 33.3208C20.727 33.907 20.2874 34.3833 19.7378 34.7863C19.1882 35.1894 18.5654 35.4458 17.9059 35.629C17.2098 35.8122 16.5136 35.9221 15.7809 35.9221H5.66865C4.93588 35.9221 4.23975 35.8122 3.58026 35.5924C2.92077 35.3726 2.33456 35.0794 1.82162 34.6764C1.30868 34.2734 0.905656 33.7605 0.57591 33.1742C0.246164 32.588 0.0996094 31.8919 0.0996094 31.1225V25.1138C0.0996094 23.7948 0.575909 22.7689 1.56515 22.0362C2.55438 21.3034 3.87337 20.937 5.59537 20.937H18.2723L21.6064 24.7108H3.91001V32.0384H17.6494V30.3531H10.9079L14.3153 26.4694H21.5331V26.4328Z" fill="#F2960D"/>
<path d="M39.6692 20.8638L43.0033 24.6742H34.2101V35.9222H30.4363V24.6742H21.6064V20.8638H39.6692Z" fill="#F2960D"/>
<path d="M116.866 20.8638L120.201 24.6742H111.407V35.9222H107.634V24.6742H98.8037V20.8638H116.866Z" fill="white"/>
<path d="M58.0252 35.9222H47.6565C47.0703 35.9222 46.4841 35.8122 45.9345 35.5558C45.3849 35.2993 44.872 34.9696 44.4323 34.5299C43.9927 34.0902 43.6629 33.6139 43.3698 33.0644C43.1133 32.5148 42.9668 31.9286 42.9668 31.3057V20.8638H46.8871V32.0019H57.9886L58.0252 35.9222Z" fill="#F2960D"/>
<path d="M160.099 35.9222H149.731C149.145 35.9222 148.558 35.8122 148.009 35.5558C147.459 35.2993 146.946 34.9696 146.507 34.5299C146.067 34.0902 145.737 33.6139 145.444 33.0644C145.188 32.5148 145.041 31.9286 145.041 31.3057V20.8638H148.961V32.0019H160.063L160.099 35.9222Z" fill="white"/>
<path d="M60.6626 20.937H76.5271C77.1865 20.937 77.846 21.0469 78.4322 21.2668C79.0551 21.4866 79.568 21.8163 80.0443 22.2194C80.5206 22.6224 80.887 23.0987 81.1435 23.6849C81.4 24.2711 81.5465 24.894 81.5465 25.5901V31.0859C81.5465 31.782 81.4 32.4048 81.1069 32.9544C80.8138 33.5406 80.4474 34.0169 79.9711 34.4199C79.4948 34.823 78.9452 35.1527 78.359 35.3725C77.7361 35.5924 77.1133 35.7023 76.4171 35.7023H60.626V20.937H60.6626ZM77.6995 24.6741H64.473V32.1117H77.6995V24.6741Z" fill="white"/>
<path d="M95.3964 20.9004L98.8038 24.6375H87.0428V26.4328H98.8038V30.2798H87.0428V31.8919H98.8038V35.8123H88.4717C87.7756 35.8123 87.1161 35.7023 86.4932 35.4459C85.8704 35.226 85.3208 34.8963 84.8445 34.4566C84.3682 34.017 83.9652 33.5407 83.6721 32.9544C83.379 32.3682 83.2324 31.7087 83.2324 31.0126V25.6268C83.2324 24.894 83.379 24.1979 83.6354 23.6117C83.8919 23.0254 84.2949 22.5125 84.7712 22.1095C85.2475 21.7065 85.7971 21.3767 86.42 21.1935C87.0428 20.9737 87.7389 20.8638 88.4717 20.8638H95.3964V20.9004Z" fill="white"/>
<path d="M115.657 35.7756L121.409 24.6375C121.703 24.0879 121.996 23.575 122.252 23.0987C122.509 22.659 122.838 22.256 123.131 21.9263C123.461 21.5965 123.828 21.3767 124.231 21.1935C124.634 21.0103 125.11 20.937 125.66 20.937C126.209 20.937 126.649 21.0103 127.052 21.1935C127.455 21.3767 127.785 21.6331 128.078 21.9263C128.371 22.256 128.664 22.659 128.957 23.0987C129.213 23.575 129.507 24.0879 129.836 24.6741L135.625 35.7756H131.522L129.287 31.8919H121.922L119.871 35.7756H115.657ZM127.382 28.1181L125.623 24.9672L123.864 28.1181H127.382Z" fill="white"/>
<path d="M141.854 35.8855H137.714V20.937H141.854V35.8855Z" fill="white"/>
<path d="M80.3008 8.29682C80.7771 7.96708 96.1652 1.51872 98.9497 1.00578C101.734 0.49284 112.323 -3.02445 151.599 7.08775C151.599 7.08775 122.105 7.4175 98.5101 9.57917L126.868 5.91532C126.868 5.91532 124.01 3.7903 115.437 2.91097L113.568 6.50154L114.265 2.69114C114.265 2.72778 103.676 -0.313208 80.3008 8.29682Z" fill="#F2960D"/>
<path d="M52.4922 18.2258L55.4233 24.5276L53.1883 25.9931L56.4491 24.9306C56.4491 24.9306 53.9944 18.3357 54.1043 18.6655C56.0095 17.0534 60.7725 14.6719 60.7725 14.6719C60.7725 14.6719 56.2659 15.6978 52.4922 18.2258Z" fill="#F2960D"/>
<path d="M160.1 16.9071L156.326 16.3575L156.656 11.4113L159.22 9.24963L154.64 7.85737C154.64 7.85737 150.244 8.51686 136.431 8.66341C121.776 8.80997 90.4866 10.8251 90.4866 10.8251L89.131 9.61602C90.0836 9.5061 90.3767 8.80997 90.3767 8.80997L87.5555 8.5535L90.4133 8.40694C91.5491 7.85736 90.0469 7.05133 90.0469 7.05133C86.7128 6.172 85.7236 8.29703 85.7236 8.29703L87.9585 10.019L89.6439 11.7777L87.9952 11.1182L83.4887 14.0859L85.5404 11.1182C66.2686 5.84226 52.749 16.2476 52.749 16.2476C52.749 16.2476 60.2599 12.2906 68.5768 11.741C66.7815 12.657 64.2168 14.7454 62.8612 19.4717C63.0078 18.9588 65.2427 12.4372 74.6222 12.254C80.924 12.4005 82.8292 16.614 83.3787 17.823C87.3357 13.0234 92.6849 12.657 92.6849 12.657C92.6849 12.657 109.282 11.5578 120.127 11.2281C127.345 10.9716 133.61 10.6785 138.666 10.8251C137.311 11.4479 134.782 12.9135 132.804 15.9545C132.804 15.9545 138.373 12.4738 144.858 12.8036C147.13 12.9867 148.302 13.6096 149.438 14.379C154.421 17.6398 153.578 24.0516 153.578 24.0516L160.1 16.9071Z" fill="#F2960D"/>
<path d="M62.8244 19.5083C62.7877 19.5449 62.7877 19.5449 62.8244 19.5083C62.7877 19.5449 62.8244 19.5449 62.8244 19.5083Z" fill="#F2960D"/>
<path d="M125.403 14.3789L123.828 14.4888L122.509 16.797H123.938L125.403 14.3789Z" fill="#F2960D"/>
<path d="M122.473 14.5989L121.19 14.6721L120.055 16.7972H121.19L122.473 14.5989Z" fill="#F2960D"/>
<path d="M117.93 16.7971H118.736L119.798 14.782L118.919 14.8553L117.93 16.7971Z" fill="#F2960D"/>
<path d="M126.796 14.2689L125.257 16.7969H127.382L129.14 14.0857L126.796 14.2689Z" fill="#F2960D"/>
<path d="M117.526 14.9651L93.5645 16.797H116.647L117.526 14.9651Z" fill="#F2960D"/>
</svg>
