<svg width="116" height="59" viewBox="0 0 116 59" fill="none" xmlns="http://www.w3.org/2000/svg">
<g clip-path="url(#clip0_83_400)">
<path d="M115.72 0H0V58.56H115.72V0Z" fill="#21252D"/>
<path d="M64.2406 27C68.438 27 71.8406 23.5974 71.8406 19.4C71.8406 15.2027 68.438 11.8 64.2406 11.8C60.0433 11.8 56.6406 15.2027 56.6406 19.4C56.6406 23.5974 60.0433 27 64.2406 27Z" fill="#DF4984"/>
<path d="M105.56 53.4399H10.1602V5.11987H105.56V53.4399ZM11.9602 51.6399H103.76V6.95987H11.9602V51.6399Z" fill="white"/>
<path d="M90.9605 27.08H64.2406C60.0006 27.08 56.5605 23.64 56.5605 19.4C56.5605 15.16 60.0006 11.72 64.2406 11.72H90.9605C95.2005 11.72 98.6406 15.16 98.6406 19.4C98.6406 23.64 95.2005 27.08 90.9605 27.08ZM64.2406 13.52C61.0006 13.52 58.3605 16.16 58.3605 19.4C58.3605 22.64 61.0006 25.28 64.2406 25.28H90.9605C94.2005 25.28 96.8406 22.64 96.8406 19.4C96.8406 16.16 94.2005 13.52 90.9605 13.52H64.2406Z" fill="white"/>
<path d="M64.2406 27.08C60.0006 27.08 56.5605 23.64 56.5605 19.4C56.5605 15.16 60.0006 11.72 64.2406 11.72C68.4806 11.72 71.9206 15.16 71.9206 19.4C71.9206 23.64 68.4806 27.08 64.2406 27.08ZM64.2406 13.52C61.0006 13.52 58.3605 16.16 58.3605 19.4C58.3605 22.64 61.0006 25.28 64.2406 25.28C67.4806 25.28 70.1206 22.64 70.1206 19.4C70.1206 16.16 67.5206 13.52 64.2406 13.52Z" fill="white"/>
<path d="M23.8802 11.72C22.0002 11.72 20.4402 12.48 19.1602 14.04C17.8802 15.6 17.2002 17.48 17.2002 19.72C17.2002 21.96 17.8402 23.8 19.1202 25.36C20.4002 26.92 22.0002 27.68 23.8402 27.68C25.6802 27.68 27.2802 26.92 28.5602 25.36C29.8402 23.8 30.4802 21.92 30.4802 19.72C30.4802 17.52 29.8802 15.6 28.6002 14.04C27.2802 12.52 25.7202 11.72 23.8802 11.72ZM27.4002 23.96C26.4402 25.12 25.2802 25.68 23.8802 25.68C22.4802 25.68 21.2802 25.12 20.3602 23.96C19.4002 22.8 18.9202 21.4 18.9202 19.72C18.9202 18.04 19.4002 16.6 20.3602 15.44C21.3202 14.28 22.4802 13.72 23.8802 13.72C25.2802 13.72 26.4802 14.28 27.4002 15.44C28.3202 16.6 28.8402 18 28.8402 19.72C28.8402 21.44 28.3602 22.84 27.4002 23.96Z" fill="white"/>
<path d="M31.7607 27.4H33.5607V20.88H40.4807V18.96H33.5607V13.96H41.3207V12H31.7607V27.4Z" fill="white"/>
<path d="M52.3598 13.96V12H42.8398V27.4H44.5998V20.88H51.5198V18.96H44.5998V13.96H52.3598Z" fill="white"/>
<path d="M28.8402 31.2004V33.1204H23.8402V46.6004H22.0802V33.1604H17.2002V31.2004H28.8402Z" fill="white"/>
<path d="M39.3202 31.2004H41.2802V46.6004H39.3202V39.6804H32.1202V46.6004H30.1602V31.2004H32.1202V37.7204H39.3602V31.2004H39.3202Z" fill="white"/>
<path d="M44.6008 44.6807H52.2008V46.6007H42.8008V31.2407H52.2008V33.1607H44.6008V37.8807H51.7208V39.8007H44.6008V44.6807Z" fill="white"/>
<path d="M79.5202 46.6004L76.3602 40.7204H73.0402V46.6004H71.2002V31.2004H76.8002C78.0002 31.2004 79.0402 31.6804 79.8802 32.6004C80.7202 33.5204 81.1602 34.6404 81.1602 35.9604C81.1602 36.9604 80.8802 37.8804 80.3602 38.6804C79.8402 39.4804 79.1202 40.0804 78.2802 40.4004L81.6002 46.5604L79.5202 46.6004ZM73.0402 33.1204V38.8404H76.8002C77.4802 38.8404 78.0802 38.5604 78.5602 38.0004C79.0402 37.4404 79.2802 36.7604 79.2802 35.9604C79.2802 35.1604 79.0402 34.4804 78.5602 33.9204C78.0802 33.3604 77.4802 33.0804 76.8002 33.0804L73.0402 33.1204Z" fill="white"/>
<path d="M82.9199 31.2004H84.7199V46.6004H82.9199V31.2004Z" fill="white"/>
<path d="M92.3201 31.2004C94.1601 31.2004 95.6801 31.9604 96.8801 33.4404C98.0801 34.9204 98.6801 36.7604 98.6801 38.9204C98.6801 41.0804 98.0801 42.8804 96.8801 44.4004C95.6801 45.9204 94.1601 46.6404 92.3201 46.6404H87.0801V31.2004H92.3201ZM92.3201 44.6804C93.6801 44.6804 94.8001 44.1204 95.6801 43.0404C96.5601 41.9604 97.0001 40.5604 97.0001 38.9204C97.0001 37.2804 96.5601 35.9204 95.6801 34.8004C94.8001 33.6804 93.6801 33.1604 92.3201 33.1604H88.8801V44.6804H92.3201Z" fill="white"/>
<path d="M63.1604 39.0004V40.8404H67.9204C67.7604 42.0404 67.2404 43.0004 66.4404 43.7604C65.6404 44.5204 64.6004 44.8804 63.2804 44.8804C61.7604 44.8804 60.5204 44.3204 59.5604 43.1604C58.6004 42.0004 58.1204 40.6004 58.1204 38.8804C58.1204 37.1604 58.6004 35.7604 59.5604 34.6004C60.5204 33.4404 61.7204 32.8804 63.2404 32.8804C64.1604 32.8804 64.9604 33.1204 65.7204 33.6404C66.0404 33.8404 66.2804 34.0804 66.5204 34.3204C67.0004 34.8404 67.3604 35.4804 67.6404 36.1604H69.5204C69.3204 35.4804 69.0404 34.8804 68.7204 34.3204C68.6404 34.2004 68.5604 34.0404 68.4804 33.9204C68.0004 33.1204 67.3604 32.4404 66.5604 31.9204C65.5604 31.2404 64.4404 30.8804 63.2404 30.8804C61.2804 30.8804 59.6404 31.6404 58.3604 33.2004C57.0804 34.7604 56.4004 36.6404 56.4004 38.8804C56.4004 41.1204 57.0404 43.0004 58.3604 44.5604C59.6804 46.1204 61.2804 46.8804 63.2804 46.8804C65.2804 46.8804 66.7604 46.2004 67.9204 44.8804C69.0804 43.5604 69.6804 41.8804 69.6804 39.8804V38.9604L63.1604 39.0004Z" fill="white"/>
</g>
<defs>
<clipPath id="clip0_83_400">
<rect width="115.72" height="58.56" fill="white"/>
</clipPath>
</defs>
</svg>
